<svg width="581" height="575" viewBox="0 0 581 575" fill="none" xmlns="http://www.w3.org/2000/svg">
<g filter="url(#filter0_d_6_410)">
<path d="M484.405 206.318C472.876 243.336 438.287 270.482 396.699 270.07C397.111 272.127 397.934 281.175 397.934 286.934C397.934 318.193 387.64 344.105 367.052 364.67C346.464 385.235 320.934 395.106 290.052 395.106C259.169 395.106 233.64 384.824 213.052 364.67C193.287 344.105 182.993 318.604 182.993 286.934C182.993 255.675 193.287 229.763 213.052 209.197C233.64 188.632 259.169 178.761 290.052 178.761C295.817 178.761 306.111 179.584 307.346 179.995C307.346 140.099 332.875 106.783 368.699 94.4442C344.405 84.9842 318.464 80.0486 290.052 80.0486C231.581 80.0486 181.757 100.614 140.993 140.51C100.64 180.406 80.875 228.94 80.875 287.345C80.875 345.339 100.64 394.695 140.993 434.591C181.346 474.487 231.169 494.23 290.052 494.23C348.523 494.23 398.346 474.487 439.111 434.591C479.464 394.695 500.052 345.339 500.052 287.345C500.052 257.731 494.699 230.997 484.405 206.318Z" fill="white"/>
<path d="M397.934 237.577C429.772 237.577 455.581 211.797 455.581 179.995C455.581 148.193 429.772 122.413 397.934 122.413C366.097 122.413 340.287 148.193 340.287 179.995C340.287 211.797 366.097 237.577 397.934 237.577Z" fill="#A7A8A9"/>
</g>
<defs>
<filter id="filter0_d_6_410" x="0.875" y="0.048584" width="579.177" height="574.181" filterUnits="userSpaceOnUse" color-interpolation-filters="sRGB">
<feFlood flood-opacity="0" result="BackgroundImageFix"/>
<feColorMatrix in="SourceAlpha" type="matrix" values="0 0 0 0 0 0 0 0 0 0 0 0 0 0 0 0 0 0 127 0" result="hardAlpha"/>
<feOffset/>
<feGaussianBlur stdDeviation="40"/>
<feColorMatrix type="matrix" values="0 0 0 0 0 0 0 0 0 0 0 0 0 0 0 0 0 0 0.8 0"/>
<feBlend mode="normal" in2="BackgroundImageFix" result="effect1_dropShadow_6_410"/>
<feBlend mode="normal" in="SourceGraphic" in2="effect1_dropShadow_6_410" result="shape"/>
</filter>
</defs>
</svg>
