<svg width="1920" height="285" viewBox="0 0 1920 285" fill="none" xmlns="http://www.w3.org/2000/svg">
<path fill-rule="evenodd" clip-rule="evenodd" d="M1920 269.892L1856 224.91C1792 179.928 1664 89.9641 1536 107.769C1408 125.575 1280 252.087 1152 279.263C1024 305.503 896 234.281 768 215.539C640 197.733 512 234.281 384 234.281C256 234.281 128 197.733 64 179.928L1.07423e-05 162.123L2.49155e-05 8.37176e-06L64 1.39668e-05C128 1.95619e-05 256 3.0752e-05 384 4.19421e-05C512 5.31322e-05 640 6.43223e-05 768 7.55125e-05C896 8.67026e-05 1024 9.78927e-05 1152 0.000109083C1280 0.000120273 1408 0.000131463 1536 0.000142653C1664 0.000153843 1792 0.000165033 1856 0.000170628L1920 0.000176223L1920 269.892Z" fill="#F7F7F7"/>
</svg>
